<svg xmlns="http://www.w3.org/2000/svg" viewBox="0 0 128 128" fill="none">
  <circle cx="64" cy="64" r="62" fill="#2d1408" stroke="#FF6B35" stroke-width="4"/>
  <path d="M64 24c-12 20-28 32-28 48 0 12 10 22 28 22s28-10 28-22c0-16-16-28-28-48z" fill="#E25822"/>
  <path d="M64 32c-8 14-18 22-18 34 0 8 6 14 18 14s18-6 18-14c0-12-10-20-18-34z" fill="#FFD166"/>
  <path d="M40 56c-8 4-14 12-14 20M88 56c8 4 14 12 14 20" stroke="#FF6B35" stroke-width="3" stroke-linecap="round"/>
  <path d="M52 44l-8-12M76 44l8-12" stroke="#FFD166" stroke-width="2" stroke-linecap="round"/>
  <ellipse cx="64" cy="92" rx="20" ry="5" fill="#FF6B35" opacity="0.4"/>
</svg>
